<svg width="24" height="24" viewBox="0 0 24 24" fill="none" xmlns="http://www.w3.org/2000/svg">
<path d="M12.7026 1.40619C12.5907 1.40619 11.1456 1.40619 10.5933 1.40619C10.5933 0.629552 9.96378 0 9.18714 0C8.4105 0 7.78095 0.629552 7.78095 1.40619C7.27078 1.40619 6.98336 1.40619 5.67166 1.40619C5.28337 1.40619 4.96857 1.76786 4.96857 2.15616V2.85926C4.96857 3.63589 5.59812 4.26545 6.37476 4.26545H11.9995C12.7762 4.26545 13.4057 3.63589 13.4057 2.85926V2.15616C13.4057 1.76786 13.0909 1.40619 12.7026 1.40619Z" fill="white"/>
<path d="M16.2649 2.85938H14.8588C14.8588 4.41045 13.5506 5.67176 11.9995 5.67176H6.37473C4.82366 5.67176 3.56235 4.41045 3.56235 2.85938H2.15616C0.993052 2.85938 0 3.80555 0 4.96866V21.843C0 23.0061 0.993052 23.9991 2.15616 23.9991H16.2649C17.4281 23.9991 18.3742 23.0061 18.3742 21.843V4.96866C18.3742 3.80555 17.4281 2.85938 16.2649 2.85938ZM3.06526 8.27813C2.79063 8.0035 2.79063 7.55854 3.06526 7.28391C3.33989 7.00928 3.78486 7.00928 4.05949 7.28391L4.96854 8.19301L5.87765 7.28391C6.15227 7.00928 6.59724 7.00928 6.87187 7.28391C7.1465 7.55854 7.1465 8.0035 6.87187 8.27813L5.96277 9.18723L6.87187 10.0963C7.1465 10.371 7.1465 10.8159 6.87187 11.0906C6.59724 11.3652 6.15227 11.3652 5.87765 11.0906L4.96854 10.1815L4.05944 11.0906C3.78481 11.3652 3.33984 11.3652 3.06522 11.0906C2.79059 10.8159 2.79059 10.371 3.06522 10.0963L3.97432 9.18723L3.06526 8.27813ZM8.27806 18.1215L5.46568 20.9339C5.32834 21.0712 5.14844 21.1399 4.96859 21.1399C4.78874 21.1399 4.60879 21.0712 4.4715 20.9339L3.06531 19.5277C2.79059 19.253 2.79059 18.8081 3.06526 18.5335C3.33989 18.2589 3.78486 18.2589 4.05949 18.5335L4.96854 19.4425L7.28384 17.1272C7.55847 16.8526 8.00343 16.8526 8.27806 17.1272C8.55269 17.4019 8.55269 17.8468 8.27806 18.1215ZM8.27806 13.1998L5.46568 16.0122C5.32834 16.1495 5.14844 16.2182 4.96859 16.2182C4.78874 16.2182 4.60879 16.1495 4.4715 16.0122L3.06531 14.606C2.79059 14.3314 2.79059 13.8864 3.06526 13.6118C3.33989 13.3372 3.78486 13.3372 4.05949 13.6118L4.96854 14.5209L7.28384 12.2056C7.55847 11.9309 8.00343 11.9309 8.27806 12.2056C8.55269 12.4802 8.55269 12.9252 8.27806 13.1998ZM14.8588 19.7337H10.5933C10.2047 19.7337 9.89021 19.4192 9.89021 19.0306C9.89021 18.6419 10.2047 18.3275 10.5933 18.3275H14.8588C15.2474 18.3275 15.5619 18.6419 15.5619 19.0306C15.5619 19.4192 15.2474 19.7337 14.8588 19.7337ZM14.8588 14.812H10.5933C10.2047 14.812 9.89021 14.4975 9.89021 14.1089C9.89021 13.7203 10.2047 13.4058 10.5933 13.4058H14.8588C15.2474 13.4058 15.5619 13.7203 15.5619 14.1089C15.5619 14.4975 15.2474 14.812 14.8588 14.812ZM14.8588 9.89033H10.5933C10.2047 9.89033 9.89021 9.57586 9.89021 9.18723C9.89021 8.79861 10.2047 8.48414 10.5933 8.48414H14.8588C15.2474 8.48414 15.5619 8.79861 15.5619 9.18723C15.5619 9.57586 15.2474 9.89033 14.8588 9.89033Z" fill="white"/>
<path d="M21.8897 4.26538C20.7266 4.26538 19.7804 5.21156 19.7804 6.37467V8.48396H23.999V6.37467C23.999 5.21156 23.0528 4.26538 21.8897 4.26538Z" fill="white"/>
<path d="M19.7814 9.89014V17.333L19.9873 17.1271C21.0365 16.0779 22.7448 16.0779 23.7939 17.1271L23.9999 17.3331V9.89014H19.7814Z" fill="white"/>
<path d="M22.7988 18.1213C22.2976 17.6201 21.4819 17.6201 20.9807 18.1213L20.1765 18.9255L21.223 22.0652C21.3185 22.3522 21.5869 22.5459 21.8897 22.5459C22.1925 22.5459 22.461 22.3522 22.5564 22.0652L23.603 18.9255L22.7988 18.1213Z" fill="white"/>
</svg>
