<svg width="24" height="21" viewBox="0 0 24 21" fill="none" xmlns="http://www.w3.org/2000/svg">
<path fill-rule="evenodd" clip-rule="evenodd" d="M10.0607 0.497918C10.6464 1.16181 10.6464 2.23819 10.0607 2.90208L5.12128 8.50005H22.2C23.1941 8.50005 24 9.26116 24 10.2C24 11.1389 23.1941 11.9 22.2 11.9H5.12136L10.0607 17.4979C10.6464 18.1618 10.6464 19.2382 10.0607 19.9021C9.47487 20.566 8.52513 20.566 7.93934 19.9021L0.43934 11.4021C0.146459 11.0701 1.25481e-05 10.6351 8.06348e-10 10.2C-1.25476e-05 9.76496 0.146434 9.32988 0.43934 8.99792L7.93934 0.497918C8.52513 -0.165973 9.47487 -0.165973 10.0607 0.497918Z" fill="#999999"/>
</svg>
